<?xml version="1.0" encoding="UTF-8"?>
<svg viewBox="0 0 176 52" xmlns="http://www.w3.org/2000/svg">
<path d="m7.7653 23.383 2.6454-1.3088 4.1813-6.2819 1.28-0.5234 1.3654 6.3691-1.792 0.2617-1.3654-2.6174-1.024 4.1007h4.5227l4.6933 1.2214 1.8774-1.2214 3.1573 3.3154 1.3653-6.1074 2.2187 2.2685 1.3653-1.9195 2.2187-0.6107 3.2427-3.0537 0.512-1.4833 2.6453 0.4363 1.1094 1.4832-1.9627 4.1879 4.864-2.5302v-1.2215l1.8773-0.4362 2.048 2.094 2.048-2.5302v-1.745l3.328-2.3557 1.3654-2.0067h2.1333l3.7547-7.7651 3.2427-3.4027 1.1946 1.9195-1.8773 2.443 0.6827 1.5705 1.792 0.34899 1.4506 6.4564v5.4093l2.56 3.5772 1.28 4.9732-4.4373-2.8792-1.9627-8.2886-1.1947 0.2617-0.1706 5.5839-3.2427 5.3222-0.9387 8.1141 2.2187 0.5235 0.9387-1.1343 2.1333 2.443 1.6213 7.3289-0.1706 4.7114h-2.048l-0.768-6.6309-1.4507 2.0067-3.1573-0.698-2.56-2.1812-2.9014 1.047 0.1707 4.7114-2.304 0.6107-3.4133 2.6175-4.096-0.5235-1.6214-0.9597-2.56 0.4362 0.8534 1.047-2.048 1.2215-1.6214-0.7853-3.072 1.396-4.6933-2.3557-1.792-4.1879-1.536 0.1745-1.792-1.4832-0.0854-1.1343-5.7173-0.6107-0.9387 3.1409-3.584-1.6577-1.792-3.0537h-3.84l-0.42667 4.8859-2.2187 0.698-1.1093 4.4497-0.85334-0.7853-3.584-9.3355 4.2667-2.094-0.68267-4.1007-0.68266-4.1879 1.8773-2.7047-0.59733-1.6577 2.56-2.7919 1.024 0.1745zm56.747 10.295 3.9253 5.9328 1.28-0.5235-1.6213-2.4429-3.584-3.8389v0.8725zm-40.107-12.04v-1.745l2.9866-2.1812 2.56-1.3087h-2.9866l-2.6454 1.5705-1.6213 1.4832v2.1812h1.7067z" fill="#fff"/>
<path d="m89.831 41h4.7232v-5.1818h2.6164c3.967 0 6.626-2.3437 6.626-6.1022 0-3.716-2.591-6.1705-6.4561-6.1705h-7.5095v17.454zm4.7232-8.8636v-4.8068h1.665c1.6565 0 2.6504 0.8864 2.6504 2.3864 0 1.4914-0.9939 2.4204-2.6504 2.4204h-1.665z" fill="#fff"/>
<path d="m111.6 41.239c4.247 0 6.762-2.7273 6.762-6.75s-2.515-6.75-6.762-6.75c-4.248 0-6.762 2.7273-6.762 6.75s2.514 6.75 6.762 6.75zm0.034-3.4773c-1.257 0-2.005-1.2528-2.005-3.3068s0.748-3.3068 2.005-3.3068c1.189 0 1.937 1.2528 1.937 3.3068s-0.748 3.3068-1.937 3.3068z" fill="#fff"/>
<path d="m126.56 41.239c3.865 0 6.235-2.2245 6.286-5.6932h-4.349c-0.102 1.3722-0.841 2.1136-1.869 2.1136-1.232 0-2.039-1.0568-2.039-3.2045s0.807-3.2046 2.039-3.2046c1.036 0 1.742 0.7415 1.869 2.1137h4.349c-0.025-3.4091-2.446-5.625-6.286-5.625-4.247 0-6.762 2.7273-6.762 6.75s2.515 6.75 6.762 6.75z" fill="#fff"/>
<path d="m141.06 41.239c3.866 0 6.236-2.2245 6.287-5.6932h-4.35c-0.102 1.3722-0.841 2.1136-1.869 2.1136-1.231 0-2.038-1.0568-2.038-3.2045s0.807-3.2046 2.038-3.2046c1.037 0 1.742 0.7415 1.869 2.1137h4.35c-0.026-3.4091-2.447-5.625-6.287-5.625-4.247 0-6.762 2.7273-6.762 6.75s2.515 6.75 6.762 6.75z" fill="#fff"/>
<path d="m153.7 35v-7.0909h-4.418v13.091h4.418l3.636-7.125v7.125h4.417v-13.091h-4.417l-3.636 7.0909z" fill="#fff"/>
<path d="m171.65 41h4.349v-13.091h-6.116c-3.764 0-6.142 1.9091-6.117 4.5682-0.017 1.4915 0.875 2.7273 2.438 3.4602l-2.574 5.0625h4.316l2.2-4.3295h1.504v4.3295zm0-7.159h-1.665c-1.249 0-1.827-0.6137-1.801-1.1932-0.026-0.5455 0.518-1.2273 1.699-1.2273h1.767v2.4205z" fill="#fff"/>
</svg>
